<?xml version="1.0" encoding="UTF-8" standalone="no"?>
<!-- Created with Inkscape (http://www.inkscape.org/) -->

<svg
   width="210mm"
   height="297mm"
   viewBox="0 0 210 297"
   version="1.1"
   id="svg5"
   xml:space="preserve"
   xmlns:inkscape="http://www.inkscape.org/namespaces/inkscape"
   xmlns:sodipodi="http://sodipodi.sourceforge.net/DTD/sodipodi-0.dtd"
   xmlns="http://www.w3.org/2000/svg"
   xmlns:svg="http://www.w3.org/2000/svg"><sodipodi:namedview
     id="namedview7"
     pagecolor="#ffffff"
     bordercolor="#000000"
     borderopacity="0.25"
     inkscape:showpageshadow="2"
     inkscape:pageopacity="0.0"
     inkscape:pagecheckerboard="0"
     inkscape:deskcolor="#d1d1d1"
     inkscape:document-units="mm"
     showgrid="false" /><defs
     id="defs2"><clipPath
       clipPathUnits="userSpaceOnUse"
       id="clipPath560"><path
         style="fill:#392888;stroke:#392888;stroke-width:1;stroke-miterlimit:2.4"
         d="m 94.917522,158.73808 v -4.68847 l 13.204258,-30.33151 4.30573,-0.0957 6.2194,12.9172 5.07119,-5.45393 9.47262,23.92075 0.47842,4.30574 z"
         id="path562" /></clipPath></defs><g
     inkscape:label="Ebene 1"
     inkscape:groupmode="layer"
     id="layer1"><g
       id="g1179"
       transform="translate(0,-31.384021)"><path
         style="fill:#bba430;fill-opacity:1;stroke-width:0.388408"
         d="m 154.21134,192.67018 c -2.00104,-0.4171 -4.4057,-1.90525 -5.31085,-3.28669 -0.3584,-0.54698 -0.65894,-1.86005 -0.68915,-3.01089 l -0.0536,-2.04089 h 2.49996 2.49996 l 0.34051,1.35943 c 0.45151,1.80261 1.23185,2.33045 3.44525,2.33045 1.98562,0 2.90242,-0.59324 3.28742,-2.12723 0.36846,-1.46805 -0.40754,-2.34704 -4.0085,-4.54048 -1.87039,-1.13932 -4.319,-2.95529 -5.44135,-4.0355 l -2.04061,-1.96402 v -2.73654 c 0,-3.16106 0.82643,-4.79125 3.10859,-6.13189 1.12713,-0.66213 2.0235,-0.79782 5.27056,-0.79782 3.64022,0 4.02745,0.0761 5.56539,1.09387 1.81367,1.20023 2.75702,2.94806 2.75702,5.10819 v 1.3719 h -2.52465 c -2.21637,0 -2.52466,-0.0896 -2.52466,-0.73378 0,-2.07102 -3.31696,-3.47732 -5.23599,-2.21993 -0.72708,0.4764 -0.97854,0.97934 -0.97854,1.95712 0,1.54397 0.8338,2.35583 4.79436,4.66818 5.28813,3.08744 6.86575,5.07932 6.84936,8.6479 -0.0139,3.01916 -1.10392,4.88713 -3.54356,6.07242 -2.35349,1.14345 -5.53422,1.54413 -8.06692,1.0162 z M 34.309824,179.1853 l 0.0443,-13.10878 2.815961,-0.11412 2.815961,-0.11412 v 5.26053 5.26053 h 3.301471 3.301471 v -5.26053 -5.26053 l 2.751202,0.11412 2.751202,0.11412 -0.01308,13.01168 -0.01308,13.01168 -2.727055,0.11389 -2.727054,0.1139 -0.108171,-5.35741 -0.108173,-5.35741 h -3.107266 -3.107267 l -0.108063,5.34062 -0.108063,5.34061 h -2.849296 -2.849299 z m 22.766188,-0.10586 v -13.21465 l 7.088453,0.10586 7.088452,0.10587 v 2.33045 2.33045 l -4.369594,0.10982 -4.369594,0.10982 v 2.69102 2.69102 l 3.398573,0.11222 3.398574,0.11223 v 2.33045 2.33045 l -3.415279,0.11246 -3.415279,0.11247 0.113808,2.8006 0.113807,2.80059 4.466697,0.19421 4.466696,0.1942 0.124131,1.51661 c 0.06827,0.83413 0.02125,1.92653 -0.104505,2.42755 l -0.228629,0.91094 h -7.178155 -7.178156 z m 18.255193,-0.0254 v -13.23998 l 6.117432,0.1367 c 5.403548,0.12074 6.305499,0.23663 7.729027,0.99307 2.48542,1.32072 3.30484,2.97618 3.30484,6.67678 0,3.80229 -0.87267,6.02652 -2.908621,7.41342 -0.780941,0.53198 -1.414533,1.14202 -1.40798,1.35564 0.02093,0.68298 2.901783,5.72653 3.259641,5.70673 0.18942,-0.0105 1.9641,-3.65836 3.94374,-8.10641 4.43564,-9.96646 9.563316,-20.3615 10.377076,-21.03686 0.42987,-0.35677 0.81415,-0.39098 1.3124,-0.11683 0.38749,0.2132 2.25802,3.45883 4.15671,7.2125 1.8987,3.75368 3.58332,6.82487 3.7436,6.82487 0.16028,0 1.00375,-1.1361 1.87438,-2.52466 2.84575,-4.5387 2.52302,-4.97651 11.02312,14.95372 0.95665,2.24306 1.89575,4.42786 2.08689,4.85511 0.21571,0.48218 0.3864,-3.97416 0.45001,-11.74935 l 0.10248,-12.52618 h 7.19871 7.1987 l -0.11563,2.42756 -0.11564,2.42755 -4.27249,0.1942 -4.27249,0.19421 -0.11817,2.28996 c -0.065,1.25947 0.0335,2.4417 0.21904,2.62717 0.18547,0.18547 1.68034,0.35103 3.32193,0.3679 1.65205,0.017 3.09849,0.21477 3.23952,0.44298 0.39259,0.63521 0.53217,2.31318 0.29087,3.49669 -0.21493,1.05418 -0.25689,1.06812 -3.21649,1.06812 -1.81446,0 -3.1828,0.18407 -3.46482,0.46609 -0.48535,0.48536 -0.64028,3.67734 -0.23033,4.74566 0.19586,0.5104 0.9834,0.61438 4.65351,0.61438 4.98077,0 5.02176,0.0288 4.75087,3.33849 l -0.12413,1.51661 h -11.06799 -11.06799 l -1.80835,-4.27249 c -0.9946,-2.34987 -1.95665,-4.61075 -2.1379,-5.02418 -0.57478,-1.3111 -1.06855,-1.04795 -2.56293,1.36595 -2.11383,3.41449 -2.55092,3.21358 -5.56112,-2.55631 -1.62078,-3.10665 -2.6466,-4.6609 -3.07628,-4.6609 -0.46302,0 -1.59653,2.13379 -4.02341,7.57397 l -3.37877,7.57396 -6.692616,0.10628 -6.692626,0.10628 -2.188071,-4.66082 c -2.087497,-4.44658 -2.974226,-5.52205 -4.02005,-4.87569 -0.228175,0.14102 -0.391885,2.17974 -0.391885,4.88018 v 4.63797 h -2.718858 -2.718859 z m 10.778332,-2.13506 c 1.342499,-1.5076 1.081663,-5.05812 -0.446553,-6.07854 -0.235053,-0.15695 -1.432372,-0.28804 -2.660714,-0.29131 l -2.233348,-0.006 v 3.62514 c 0,1.99383 0.131088,3.75766 0.291306,3.91963 0.160219,0.16196 1.165225,0.18601 2.233348,0.0534 1.391473,-0.1727 2.1898,-0.51925 2.815961,-1.22242 z"
         id="path394" /><path
         style="fill:#4a742f;fill-opacity:1;stroke-width:0.388408"
         d="m 157.7047,158.8742 c -2.00104,-0.4171 -4.4057,-1.90525 -5.31085,-3.28669 -0.3584,-0.54698 -0.65894,-1.86005 -0.68915,-3.01089 l -0.0536,-2.04089 h 2.49996 2.49996 l 0.34051,1.35943 c 0.45151,1.80261 1.23185,2.33045 3.44525,2.33045 1.98562,0 2.90242,-0.59324 3.28742,-2.12723 0.36846,-1.46805 -0.40754,-2.34704 -4.0085,-4.54048 -1.87039,-1.13932 -4.319,-2.95529 -5.44135,-4.0355 l -2.04061,-1.96402 v -2.73654 c 0,-3.16106 0.82643,-4.79125 3.10859,-6.13189 1.12713,-0.66213 2.0235,-0.79782 5.27056,-0.79782 3.64022,0 4.02745,0.0761 5.56539,1.09387 1.81367,1.20023 2.75702,2.94806 2.75702,5.10819 v 1.3719 h -2.52465 c -2.21637,0 -2.52466,-0.0896 -2.52466,-0.73378 0,-2.07102 -3.31696,-3.47732 -5.23599,-2.21993 -0.72708,0.4764 -0.97854,0.97934 -0.97854,1.95712 0,1.54397 0.8338,2.35583 4.79436,4.66818 5.28813,3.08744 6.86575,5.07932 6.84936,8.6479 -0.0139,3.01916 -1.10392,4.88713 -3.54356,6.07242 -2.35349,1.14345 -5.53422,1.54413 -8.06692,1.0162 z m -119.901521,-13.48488 0.0443,-13.10878 2.815961,-0.11412 2.815961,-0.11412 v 5.26053 5.26053 h 3.301471 3.301471 v -5.26053 -5.26053 l 2.751202,0.11412 2.751202,0.11412 -0.01308,13.01168 -0.01308,13.01168 -2.727055,0.11389 -2.727054,0.1139 -0.108171,-5.35741 -0.108173,-5.35741 h -3.107266 -3.107267 l -0.108063,5.34062 -0.108063,5.34061 H 40.608179 37.75888 Z m 22.766188,-0.10586 v -13.21465 l 7.088453,0.10586 7.088452,0.10587 v 2.33045 2.33045 l -4.369594,0.10982 -4.369594,0.10982 v 2.69102 2.69102 l 3.398573,0.11222 3.398574,0.11223 v 2.33045 2.33045 l -3.415279,0.11246 -3.415279,0.11247 0.113808,2.8006 0.113807,2.80059 4.466697,0.19421 4.466696,0.1942 0.124131,1.51661 c 0.06827,0.83413 0.02125,1.92653 -0.104505,2.42755 l -0.228629,0.91094 h -7.178155 -7.178156 z m 18.255193,-0.0254 v -13.23998 l 6.117432,0.1367 c 5.403548,0.12074 6.305499,0.23663 7.729027,0.99307 2.485421,1.32072 3.304835,2.97618 3.304835,6.67678 0,3.80229 -0.872665,6.02652 -2.908616,7.41342 -0.780941,0.53198 -1.414533,1.14202 -1.40798,1.35564 0.02093,0.68298 2.901783,6.01358 3.259639,5.99378 0.189423,-0.0105 1.964104,-3.94541 3.943742,-8.39346 4.435641,-9.96646 9.563321,-20.3615 10.377081,-21.03686 0.42987,-0.35677 0.81415,-0.39098 1.3124,-0.11683 0.38749,0.2132 2.25802,3.45883 4.15671,7.2125 1.8987,3.75368 3.58332,6.82487 3.7436,6.82487 0.16028,0 1.00375,-1.1361 1.87438,-2.52466 2.84575,-4.5387 2.52302,-4.97651 11.02312,14.95372 0.95665,2.24306 1.89575,4.42786 2.08689,4.85511 0.21571,0.48218 0.3864,-3.97416 0.45001,-11.74935 l 0.10248,-12.52618 h 7.19871 7.1987 l -0.11563,2.42756 -0.11564,2.42755 -4.27249,0.1942 -4.27249,0.19421 -0.11817,2.28996 c -0.065,1.25947 0.0335,2.4417 0.21904,2.62717 0.18547,0.18547 1.68034,0.35103 3.32193,0.3679 1.65205,0.017 3.09849,0.21477 3.23952,0.44298 0.39259,0.63521 0.53217,2.31318 0.29087,3.49669 -0.21493,1.05418 -0.25689,1.06812 -3.21649,1.06812 -1.81446,0 -3.1828,0.18407 -3.46482,0.46609 -0.48535,0.48536 -0.64028,3.67734 -0.23033,4.74566 0.19586,0.5104 0.9834,0.61438 4.65351,0.61438 4.98077,0 5.02176,0.0288 4.75087,3.33849 l -0.12413,1.51661 h -11.06799 -11.06799 l -1.80835,-4.27249 c -0.9946,-2.34987 -1.95665,-4.61075 -2.1379,-5.02418 -0.57478,-1.3111 -1.06855,-1.04795 -2.56293,1.36595 -2.11383,3.41449 -2.55092,3.21358 -5.56112,-2.55631 -1.62078,-3.10665 -2.6466,-4.6609 -3.07628,-4.6609 -0.46302,0 -1.59653,2.13379 -4.02341,7.57397 l -3.37877,7.57396 -6.692622,0.10628 -6.692625,0.10628 -2.188071,-4.66082 c -2.087497,-4.44658 -2.974226,-5.52205 -4.02005,-4.87569 -0.228175,0.14102 -0.391885,2.17974 -0.391885,4.88018 v 4.63797 H 81.543419 78.82456 Z M 89.602892,143.123 c 1.342499,-1.5076 1.081663,-5.05812 -0.446553,-6.07854 -0.235053,-0.15695 -1.432372,-0.28804 -2.660714,-0.29131 l -2.233348,-0.006 v 3.62514 c 0,1.99383 0.131088,3.75766 0.291306,3.91963 0.160219,0.16196 1.165225,0.18601 2.233348,0.0534 1.391473,-0.1727 2.1898,-0.51925 2.815961,-1.22242 z"
         id="path314"
         sodipodi:nodetypes="ssscccssssscssssscsssssssscccccccccccccccccccccccccccccccccccccccccccccssccccccssssssssssssssscccccccscsssssssscccsssssscccssscccccsccssccc"
         clip-path="url(#clipPath560)"
         transform="translate(-3.5182207,33.693729)" /></g></g></svg>
